<svg xmlns="http://www.w3.org/2000/svg" viewBox="39 725 1176 135" fill="none">
  <title>ConfidaraExpress</title>
  <!-- Aus ConfidaraExpress_MasterSVG abgeleitet: Subpaths woertlich uebernommen, nur Ausschnitt (viewBox) und Produktfarben angepasst. Reine Wortmarke ohne Signet — fuer schmale horizontale Flaechen. Siehe styles/primitives.css. -->
  <path d="M 357 758 L 357 831 L 376 831 L 376 764 L 375 763 L 375 758 Z M 626 763 L 619 770 L 615 777 L 615 779 L 613 782 L 613 785 L 612 786 L 612 794 L 611 795 L 612 797 L 612 804 L 613 805 L 614 811 L 620 821 L 625 826 L 631 830 L 633 830 L 636 832 L 639 832 L 640 833 L 653 833 L 654 832 L 657 832 L 663 829 L 669 824 L 670 825 L 670 831 L 682 831 L 683 832 L 688 832 L 689 831 L 689 759 L 688 758 L 670 758 L 670 765 L 669 766 L 662 760 L 655 757 L 639 757 L 638 758 L 635 758 Z M 645 774 L 656 774 L 660 776 L 665 780 L 670 790 L 670 800 L 669 801 L 669 803 L 665 810 L 658 815 L 655 815 L 654 816 L 646 816 L 641 814 L 635 809 L 631 801 L 631 789 L 633 784 L 639 777 Z M 606 757 L 596 757 L 595 758 L 592 758 L 586 762 L 582 768 L 581 767 L 581 759 L 580 758 L 563 758 L 562 759 L 562 831 L 563 832 L 574 832 L 575 831 L 581 831 L 581 792 L 582 791 L 583 785 L 589 778 L 595 775 L 605 775 L 606 776 L 607 775 L 607 758 Z M 486 763 L 481 768 L 476 775 L 473 783 L 473 787 L 472 788 L 472 802 L 473 803 L 473 807 L 478 818 L 481 822 L 488 828 L 494 831 L 500 832 L 501 833 L 512 833 L 513 832 L 516 832 L 523 829 L 529 824 L 530 825 L 530 831 L 534 831 L 535 832 L 545 832 L 546 831 L 549 831 L 549 759 L 547 759 L 546 758 L 530 759 L 531 760 L 531 762 L 529 766 L 522 760 L 514 757 L 499 757 L 498 758 L 493 759 Z M 505 774 L 516 774 L 522 777 L 527 782 L 530 789 L 530 801 L 528 806 L 523 812 L 515 816 L 507 816 L 506 815 L 501 814 L 494 807 L 491 800 L 491 790 L 495 781 L 500 776 Z M 281 761 L 272 757 L 258 757 L 257 758 L 252 759 L 246 763 L 244 766 L 243 766 L 242 765 L 242 758 L 225 758 L 224 759 L 224 831 L 227 831 L 228 832 L 240 832 L 241 831 L 243 831 L 243 786 L 245 781 L 250 776 L 255 774 L 264 774 L 268 776 L 272 781 L 272 783 L 273 784 L 273 831 L 274 832 L 292 831 L 292 781 L 291 780 L 291 776 L 290 775 L 289 770 Z M 161 759 L 152 764 L 145 771 L 140 780 L 140 782 L 138 786 L 138 804 L 139 805 L 139 808 L 145 819 L 151 825 L 159 830 L 161 830 L 165 832 L 168 832 L 169 833 L 183 833 L 184 832 L 191 831 L 200 826 L 208 818 L 213 809 L 214 801 L 215 800 L 215 791 L 214 790 L 214 785 L 213 784 L 212 779 L 208 772 L 199 763 L 189 758 L 186 758 L 185 757 L 168 757 L 167 758 Z M 171 774 L 181 774 L 186 776 L 192 781 L 196 790 L 196 800 L 193 807 L 190 811 L 186 814 L 181 816 L 171 816 L 165 813 L 160 808 L 157 802 L 157 789 L 158 788 L 158 786 L 160 782 L 166 776 Z M 78 729 L 65 734 L 55 741 L 48 749 L 46 754 L 44 756 L 40 767 L 40 772 L 39 773 L 39 790 L 40 791 L 41 799 L 46 810 L 50 816 L 55 821 L 65 828 L 75 832 L 85 833 L 86 834 L 95 834 L 96 833 L 103 833 L 104 832 L 107 832 L 113 829 L 115 829 L 119 826 L 122 825 L 128 820 L 128 819 L 132 815 L 132 813 L 131 813 L 124 806 L 118 802 L 110 810 L 104 813 L 98 814 L 97 815 L 86 815 L 85 814 L 82 814 L 74 810 L 67 804 L 62 796 L 61 790 L 60 789 L 60 773 L 61 772 L 63 764 L 66 759 L 71 754 L 79 749 L 81 749 L 85 747 L 98 747 L 99 748 L 102 748 L 109 751 L 118 759 L 131 747 L 132 747 L 132 745 L 127 740 L 120 735 L 106 729 L 102 729 L 101 728 L 83 728 L 82 729 Z M 462 725 L 444 726 L 444 756 L 443 757 L 443 764 L 442 765 L 434 759 L 429 757 L 422 757 L 421 756 L 419 757 L 412 757 L 401 762 L 393 770 L 389 776 L 389 778 L 386 785 L 386 790 L 385 791 L 385 799 L 386 800 L 387 809 L 393 820 L 403 829 L 407 831 L 414 832 L 415 833 L 427 833 L 435 830 L 443 823 L 444 824 L 444 831 L 462 831 L 463 830 L 463 819 L 462 818 L 462 797 L 463 796 L 463 768 L 462 767 L 462 765 L 463 764 L 463 757 L 462 756 L 462 742 L 463 741 L 463 726 Z M 419 774 L 429 774 L 434 776 L 442 785 L 443 791 L 444 792 L 444 798 L 443 799 L 442 805 L 435 813 L 428 816 L 420 816 L 415 814 L 409 809 L 405 801 L 405 789 L 407 784 L 413 777 Z M 364 725 L 363 726 L 361 726 L 357 730 L 355 735 L 355 738 L 356 739 L 356 741 L 361 746 L 363 747 L 369 747 L 370 746 L 372 746 L 376 742 L 376 740 L 377 739 L 377 732 L 373 727 L 369 725 Z M 345 726 L 342 726 L 341 725 L 327 725 L 326 726 L 323 726 L 318 729 L 314 733 L 310 741 L 310 746 L 309 747 L 309 757 L 308 758 L 299 759 L 299 774 L 308 774 L 309 775 L 309 831 L 317 831 L 318 832 L 327 832 L 328 831 L 328 775 L 329 774 L 345 774 L 345 760 L 346 759 L 345 758 L 329 758 L 328 757 L 328 748 L 329 747 L 329 745 L 333 741 L 341 741 L 342 742 L 345 742 L 348 734 L 348 731 L 349 730 L 349 728 Z M 801 759 L 803 761 L 806 767 L 812 774 L 818 784 L 824 791 L 825 795 L 800 831 L 806 831 L 807 832 L 819 832 L 821 831 L 837 808 L 854 832 L 874 831 L 870 826 L 869 823 L 863 814 L 860 811 L 858 807 L 849 795 L 850 791 L 862 775 L 866 768 L 869 765 L 873 758 L 853 758 L 843 773 L 837 780 L 827 767 L 822 758 L 803 758 Z M 1035 760 L 1029 764 L 1024 769 L 1017 781 L 1017 784 L 1016 785 L 1016 793 L 1015 794 L 1016 795 L 1016 804 L 1020 815 L 1032 828 L 1042 832 L 1045 832 L 1046 833 L 1062 833 L 1063 832 L 1066 832 L 1074 829 L 1085 819 L 1084 817 L 1076 811 L 1072 809 L 1067 814 L 1061 817 L 1051 818 L 1050 817 L 1047 817 L 1042 814 L 1037 809 L 1035 805 L 1035 802 L 1036 801 L 1087 801 L 1088 800 L 1088 787 L 1087 786 L 1087 782 L 1084 775 L 1079 768 L 1073 762 L 1064 758 L 1061 758 L 1060 757 L 1044 757 L 1043 758 L 1040 758 L 1037 760 Z M 1035 784 L 1037 780 L 1042 775 L 1049 772 L 1055 772 L 1063 775 L 1067 779 L 1069 783 L 1069 787 L 1068 788 L 1036 788 L 1035 787 Z M 1013 757 L 1002 757 L 1001 758 L 999 758 L 994 761 L 989 767 L 987 766 L 987 758 L 969 758 L 969 831 L 971 831 L 972 832 L 984 832 L 985 831 L 988 831 L 988 789 L 989 788 L 989 786 L 992 781 L 999 776 L 1001 776 L 1002 775 L 1012 775 L 1013 776 Z M 939 760 L 931 757 L 915 757 L 908 760 L 900 766 L 899 765 L 899 758 L 882 758 L 881 759 L 881 860 L 900 860 L 900 825 L 901 824 L 905 828 L 913 832 L 916 832 L 917 833 L 929 833 L 930 832 L 933 832 L 943 827 L 952 817 L 955 811 L 956 805 L 957 804 L 957 786 L 956 785 L 955 779 L 950 770 Z M 914 774 L 924 774 L 930 777 L 934 781 L 938 789 L 938 794 L 939 795 L 938 796 L 938 801 L 936 806 L 930 813 L 924 816 L 915 816 L 908 813 L 904 809 L 900 802 L 900 789 L 901 788 L 901 786 L 903 782 L 908 777 Z M 1177 757 L 1169 760 L 1162 766 L 1158 776 L 1159 786 L 1161 790 L 1167 796 L 1175 800 L 1185 802 L 1193 805 L 1196 808 L 1196 814 L 1191 818 L 1183 819 L 1182 818 L 1178 818 L 1174 816 L 1167 810 L 1162 815 L 1161 815 L 1156 820 L 1156 821 L 1165 829 L 1176 833 L 1195 833 L 1205 829 L 1211 823 L 1214 817 L 1214 813 L 1215 812 L 1214 803 L 1212 799 L 1206 793 L 1201 790 L 1191 788 L 1190 787 L 1187 787 L 1180 784 L 1177 781 L 1176 777 L 1179 773 L 1184 771 L 1188 771 L 1189 772 L 1192 772 L 1202 778 L 1212 768 L 1212 767 L 1205 761 L 1199 758 L 1189 757 L 1188 756 Z M 1113 757 L 1104 761 L 1098 767 L 1095 773 L 1095 784 L 1096 785 L 1096 787 L 1098 791 L 1105 797 L 1111 800 L 1121 802 L 1122 803 L 1125 803 L 1129 805 L 1133 809 L 1133 813 L 1127 818 L 1120 819 L 1119 818 L 1112 817 L 1104 811 L 1102 811 L 1094 819 L 1093 819 L 1093 822 L 1100 828 L 1106 831 L 1112 832 L 1113 833 L 1131 833 L 1132 832 L 1135 832 L 1144 827 L 1150 818 L 1150 816 L 1151 815 L 1151 806 L 1150 805 L 1149 800 L 1146 796 L 1137 790 L 1127 788 L 1126 787 L 1123 787 L 1116 784 L 1113 781 L 1113 776 L 1116 773 L 1123 771 L 1124 772 L 1129 772 L 1138 778 L 1149 768 L 1143 762 L 1135 758 L 1132 758 L 1131 757 L 1124 757 L 1123 756 L 1121 756 L 1120 757 Z M 727 731 L 727 734 L 726 735 L 726 751 L 727 752 L 727 757 L 726 758 L 726 773 L 727 774 L 727 779 L 726 780 L 726 831 L 727 832 L 793 832 L 794 831 L 793 814 L 747 814 L 746 813 L 746 791 L 748 789 L 788 789 L 788 784 L 789 783 L 789 773 L 788 772 L 747 772 L 746 771 L 746 749 L 747 748 L 793 748 L 794 747 L 793 746 L 793 731 Z" fill="#F7F8FC" fill-rule="evenodd"/>
</svg>
